<?xml version="1.0" encoding="UTF-8"?>
<svg width="230px" height="51px" viewBox="0 0 230 51" version="1.1" xmlns="http://www.w3.org/2000/svg" xmlns:xlink="http://www.w3.org/1999/xlink">
    <!-- Generator: Sketch 47.1 (45422) - http://www.bohemiancoding.com/sketch -->
    <title>Logo</title>
    <desc>Created with Sketch.</desc>
    <defs></defs>
    <g id="Page-1" stroke="none" stroke-width="1" fill="none" fill-rule="evenodd">
        <g id="Utbildning" transform="translate(-360.000000, -15.000000)">
            <g id="Logo" transform="translate(356.000000, 11.000000)">
                <path d="M51.3166899,32.8441712 L51.3166899,35.0957121 C54.892108,36.3218949 57.4565679,39.6912685 57.4565679,43.6686732 C57.4565679,48.6317471 53.4161411,52.6591595 48.4158449,52.703214 L42.7818467,52.703214 C37.7426829,52.703214 33.6577787,48.6569494 33.6577787,43.6662918 L33.6577787,25.335463 C37.650122,25.335463 39.6041202,25.335463 44.4220993,25.335463 L44.4220993,48.2747471 L46.594878,48.2747471 L46.594878,25.335463 C46.735723,25.335463 49.2859582,25.335463 49.2859582,25.335463 C51.795723,25.335463 54.1408014,26.3389922 55.8497735,28.0850973 L57.4096864,26.5870467 C55.2952091,24.4269883 52.3893554,23.1835409 49.2859582,23.1835409 C49.2859582,23.1835409 37.176899,23.1835409 31.4858014,23.1835409 L31.4852003,43.6662918 C31.4852003,49.8456265 36.5429965,54.8551362 42.7818467,54.8551362 C42.7818467,54.8551362 48.4505052,54.8543424 48.4681359,54.8539455 C54.6440767,54.7819105 59.6291463,49.8025642 59.6291463,43.6686732 C59.6291463,38.4908833 56.1104268,34.1413969 51.3166899,32.8441712" id="Fill-3" fill="#FFFFFE"></path>
                <path d="M9.53162021,25.3187938 C10.1809495,25.3187938 10.1809495,25.3187938 12.408223,25.3187938 C15.5651132,25.3187938 15.7560453,25.3187938 21.0051742,25.3187938 C19.5282056,26.9005875 18.6839373,29.2799261 18.6839373,32.5411479 C18.6839373,35.9891051 18.6839373,35.9891051 18.6839373,39.7603268 C18.6839373,41.7066615 18.6839373,41.7066615 18.6839373,43.6085447 C18.6839373,47.6383385 18.6839373,47.6383385 18.6839373,50.7622374 C18.6839373,51.8963424 18.6839373,52.0447782 18.6839373,52.6563813 L18.5757491,52.6446732 C11.66473,52.0412062 6.24029617,46.2635214 6.24029617,39.2138132 L6.24029617,28.404393 C6.24029617,26.7005564 7.63311847,25.3203813 9.35391115,25.3187938 L9.37254355,25.3187938 C9.41682056,25.3187938 9.41682056,25.3187938 9.53162021,25.3187938 Z M9.35391115,23.1672685 C6.43303136,23.1684591 4.06751742,25.5122763 4.06751742,28.404393 L4.06751742,39.2138132 C4.06751742,47.8506732 11.0963415,54.8551362 19.7702265,54.8551362 C20.37027,54.8551362 20.856716,54.3733152 20.856716,53.7791751 C20.856716,53.6335175 20.856716,35.9891051 20.856716,32.5411479 C20.856716,29.2420233 21.7927439,27.2373463 23.3115854,26.153249 C23.8254791,25.7863268 24.3772387,25.5497821 24.9279965,25.4188093 C25.1179268,25.3735642 25.2920296,25.3447899 25.4440941,25.3297082 C25.4935801,25.3241518 25.5356533,25.3211751 25.5693118,25.3195875 C25.5837369,25.3187938 25.5883449,25.3187938 25.5825348,25.3187938 C26.5373955,25.3187938 27.4169251,25.3187938 28.2271341,25.3187938 L28.2271341,23.1668716 C27.4169251,23.1668716 9.35932056,23.1668716 9.35631533,23.1668716 L9.35391115,23.1672685 L9.35391115,23.1672685 Z" id="Fill-4" fill="#FFFFFE"></path>
                <path d="M33.7124739,6.4680428 L40.4804443,6.4680428 C42.201838,6.4680428 43.5962631,7.84940856 43.5962631,9.55403891 L43.5962631,18.4391518 L45.7686411,18.4391518 L45.7686411,9.55403891 C45.7686411,6.6611284 43.4017247,4.31631907 40.4804443,4.31631907 L32.6261847,4.31631907 C32.0263415,4.31631907 31.5398955,4.79794163 31.5398955,5.39208171 L31.5398955,18.4391518 L33.7124739,18.4391518 L33.7124739,6.4680428" id="Fill-5" fill="#FFFFFE"></path>
                <path d="M19.0303397,6.33210895 L19.9190854,6.33210895 L19.9190854,12.6027276 C19.9190854,14.8641907 18.0686672,16.6966187 15.7852962,16.6966187 L7.52753484,16.6966187 C8.07568815,10.8830156 13.0150784,6.33210895 19.0303397,6.33210895 Z M6.3889547,18.8485409 L15.7852962,18.8485409 C19.268554,18.8485409 22.0916638,16.0524708 22.0916638,12.6027276 L22.0916638,5.2563463 C22.0916638,4.66180934 21.6054181,4.18038521 21.0053746,4.18038521 L19.0303397,4.18038521 C11.4487544,4.18038521 5.30266551,10.2654591 5.30266551,17.7725798 C5.30266551,18.3667198 5.7891115,18.8485409 6.3889547,18.8485409 L6.3889547,18.8485409 Z" id="Fill-6" fill="#FFFFFE"></path>
                <path d="M126.238589,10.5301829 C126.467787,10.5301829 126.661524,10.4514008 126.82,10.2942335 C126.985488,10.1305175 127.068232,9.93564591 127.068232,9.70902335 C127.068232,9.48220233 126.985488,9.29030739 126.82,9.13314008 C126.661524,8.96942412 126.467787,8.88766537 126.238589,8.88766537 C126.009991,8.88766537 125.813449,8.96942412 125.647962,9.13314008 C125.489486,9.29030739 125.409747,9.48220233 125.409747,9.70902335 C125.409747,9.93564591 125.489486,10.1305175 125.647962,10.2942335 C125.813449,10.4514008 126.009991,10.5301829 126.238589,10.5301829" id="Fill-7" fill="#FFFFFE"></path>
                <path d="M129.069913,10.5301829 C129.29831,10.5301829 129.495052,10.4514008 129.66054,10.2942335 C129.819016,10.1305175 129.898554,9.93564591 129.898554,9.70902335 C129.898554,9.48220233 129.819016,9.29030739 129.66054,9.13314008 C129.495052,8.96942412 129.29831,8.88766537 129.069913,8.88766537 C128.840514,8.88766537 128.646777,8.96942412 128.488301,9.13314008 C128.322814,9.29030739 128.24027,9.48220233 128.24027,9.70902335 C128.24027,9.93564591 128.322814,10.1305175 128.488301,10.2942335 C128.646777,10.4514008 128.840514,10.5301829 129.069913,10.5301829" id="Fill-8" fill="#FFFFFE"></path>
                <path d="M130.232535,22.6237315 C130.073458,23.1839377 129.832038,23.5707043 129.508075,23.7848249 C129.127012,24.0491518 128.513545,24.1811167 127.668476,24.1811167 C126.829416,24.1811167 126.21034,24.0428016 125.809843,23.7657743 C125.473458,23.5331984 125.228432,23.1523852 125.075767,22.6237315 C124.967979,22.2520467 124.917291,20.9903424 124.923101,18.8378249 C124.923101,16.7609144 124.964974,15.5210389 125.047517,15.1183969 C125.155305,14.5393385 125.371481,14.1271712 125.695444,13.8816965 C126.083118,13.5919689 126.718624,13.4473035 127.60196,13.4473035 C128.510139,13.4473035 129.174495,13.5985175 129.594024,13.9007471 C129.937021,14.1521751 130.159608,14.5583891 130.260984,15.1183969 C130.343328,15.5210389 130.384599,16.7609144 130.384599,18.8378249 C130.39101,20.9903424 130.340523,22.2520467 130.232535,22.6237315 Z M131.452456,14.8917743 C131.115671,13.1295953 129.832038,12.2485058 127.60196,12.2485058 C125.441603,12.2485058 124.192831,13.1295953 123.855645,14.8917743 C123.773301,15.3007665 123.725618,16.5846965 123.713197,18.7435642 C123.700375,21.0597977 123.76689,22.4631907 123.912944,22.9539416 C124.154564,23.7911751 124.5775,24.4045642 125.180749,24.7949027 C125.784399,25.1852412 126.613841,25.3801128 127.668476,25.3801128 C128.729721,25.3801128 129.555958,25.1880195 130.146585,24.8042296 C130.731002,24.4202412 131.147526,23.8034786 131.394756,22.9539416 C131.541611,22.4631907 131.608127,21.0597977 131.595105,18.7435642 C131.582883,16.5846965 131.535,15.3007665 131.452456,14.8917743 L131.452456,14.8917743 Z" id="Fill-9" fill="#FFFFFE"></path>
                <polyline id="Fill-10" fill="#FFFFFE" points="116.348589 17.3558482 111.802483 17.3558482 111.802483 12.4842568 110.591977 12.4842568 110.591977 25.1915914 111.802483 25.1915914 111.802483 18.5548444 116.348589 18.5548444 116.348589 25.1915914 117.559094 25.1915914 117.559094 12.4842568 116.348589 12.4842568 116.348589 17.3558482"></polyline>
                <path d="M145.755531,18.5169416 L142.353014,18.5169416 L142.353014,19.7159377 L144.545026,19.7159377 C144.538615,21.4088599 144.487927,22.4096109 144.392361,22.7181907 C144.233885,23.278 143.992265,23.6653619 143.668502,23.8794825 C143.286638,24.1438093 142.673972,24.2755759 141.828702,24.2755759 C140.989843,24.2755759 140.370166,24.1372607 139.97007,23.8602335 C139.633084,23.6272607 139.388859,23.2468444 139.236193,22.7181907 C139.128406,22.3467043 139.077117,21.0848016 139.083528,18.9324825 C139.083528,16.8553735 139.1248,15.6154981 139.207744,15.2126576 C139.315531,14.6337977 139.531707,14.2216304 139.855871,13.9759572 C140.243345,13.6866265 140.878449,13.5417626 141.761986,13.5417626 C142.670366,13.5417626 143.334321,13.6927782 143.75385,13.9950078 C144.097247,14.2466342 144.319233,14.6524514 144.421211,15.2126576 L145.612282,14.9862335 C145.275897,13.223856 143.992265,12.3427665 141.761986,12.3427665 C139.601429,12.3427665 138.353258,13.223856 138.016071,14.9862335 C137.933728,15.3952257 137.886045,16.6793541 137.873023,18.8378249 C137.860601,21.1538599 137.927317,22.5574514 138.073171,23.0485992 C138.314791,23.8854358 138.737326,24.4990233 139.340976,24.8893619 C139.944826,25.2797004 140.773667,25.474572 141.828702,25.474572 C142.889547,25.474572 143.715984,25.282677 144.306812,24.8986887 C144.891228,24.5147004 145.307953,23.8979377 145.555183,23.0485992 C145.694826,22.5828521 145.761943,21.2707432 145.755531,19.111677 L145.755531,18.5169416" id="Fill-11" fill="#FFFFFE"></path>
                <path d="M225.789721,12.4842568 L225.789721,21.3018988 C225.330923,20.4208093 224.525523,19.1053268 223.367509,17.3558482 C221.664547,14.7943385 220.813066,13.1704747 220.813066,12.4842568 L219.602962,12.4842568 L219.602962,25.1915914 L220.813066,25.1915914 L220.813066,15.6188716 C221.111585,16.122323 221.624477,16.9214553 222.347735,18.0164669 C223.459669,19.690537 224.235017,20.9429144 224.67378,21.7737977 C225.417073,23.1775875 225.789721,24.3164553 225.789721,25.1915914 L226.999826,25.1915914 L226.999826,12.4842568 L225.789721,12.4842568" id="Fill-12" fill="#FFFFFE"></path>
                <path d="M103.875296,20.008642 L100.482195,20.008642 C100.221742,20.008642 100.091716,20.0999261 100.091716,20.2822957 L100.091716,21.065751 C100.091716,21.2421673 100.218937,21.3302763 100.472779,21.3302763 L103.884913,21.3302763 C104.139155,21.3302763 104.266577,21.2421673 104.266577,21.065751 L104.266577,20.2822957 C104.266577,20.0999261 104.135749,20.008642 103.875296,20.008642" id="Fill-13" fill="#FFFFFE"></path>
                <polyline id="Fill-14" fill="#FFFFFE" points="94.7099564 12.4842568 88.0567857 12.4842568 88.0567857 13.6832529 90.7729094 13.6832529 90.7729094 25.1915914 91.9930314 25.1915914 91.9930314 13.6832529 94.7099564 13.6832529 94.7099564 12.4842568"></polyline>
                <polygon id="Fill-15" fill="#FFFFFE" points="80.5972125 25.1915914 81.8071167 25.1915914 81.8071167 12.4842568 80.5972125 12.4842568"></polygon>
                <path d="M207.169338,20.0179689 C207.702265,18.2873424 208.375436,16.3485486 209.18885,14.2027782 C210.014286,16.3485486 210.697474,18.2873424 211.238415,20.0179689 L207.169338,20.0179689 Z M208.625871,12.47493 C206.103484,18.7560661 204.843293,22.994821 204.843293,25.1915914 L206.053397,25.1915914 C206.053397,24.3480078 206.30784,23.0233969 206.814721,21.216965 L211.601045,21.216965 C212.121951,23.0233969 212.382404,24.3480078 212.382404,25.1915914 L213.592509,25.1915914 C213.592509,22.994821 212.312282,18.7560661 209.751829,12.47493 L208.625871,12.47493 L208.625871,12.47493 Z" id="Fill-16" fill="#FFFFFE"></path>
                <polyline id="Fill-17" fill="#FFFFFE" points="194.228833 12.47493 193.016725 12.47493 193.016725 25.1915914 199.3277 25.1915914 199.3277 23.9925953 194.228833 23.9925953 194.228833 12.47493"></polyline>
                <path d="M169.643876,18.2432879 C171.048319,17.569572 171.75054,16.4307043 171.75054,14.8258911 L171.75054,12.4842568 L170.539834,12.4842568 L170.539834,14.8258911 C170.539834,15.4676576 170.419024,15.9679339 170.177605,16.3269183 C169.892108,16.7484125 169.370601,17.0946965 168.614887,17.3651751 C167.896838,17.6233502 167.105462,17.9192296 166.241359,18.2526148 L166.241359,12.4842568 L165.030854,12.4842568 L165.030854,25.1915914 L166.241359,25.1915914 L166.241359,19.5458716 C167.023118,19.2374903 167.776028,18.9513346 168.499887,18.6870078 C170.412613,21.7079144 171.368876,23.8759105 171.368876,25.1915914 L172.579382,25.1915914 C172.579382,23.6681401 171.60088,21.3523035 169.643876,18.2432879" id="Fill-18" fill="#FFFFFE"></path>
                <path d="M155.455401,17.2518638 C154.724329,16.9686848 154.193406,16.7075331 153.863632,16.4684086 C153.393014,16.122323 153.132561,15.7161089 153.081873,15.2505603 C153.031185,14.8411712 153.148389,14.4512296 153.434686,14.0797432 C153.701551,13.733856 154.019103,13.5104086 154.387944,13.4095992 C155.004016,13.252035 155.563188,13.2710856 156.065061,13.4663541 C156.560523,13.6614241 156.881481,13.9918327 157.027735,14.4575798 L158.180941,14.0987938 C157.932909,13.3183152 157.42162,12.7517588 156.646472,12.3995214 C155.877535,12.0534358 155.023049,12.0062062 154.082613,12.2578327 C153.440697,12.4215486 152.901159,12.7896615 152.462195,13.3623696 C151.985767,13.9856809 151.788824,14.659 151.871368,15.3827237 C151.960322,16.1882062 152.37324,16.8615253 153.110122,17.4030778 C153.523641,17.7114591 154.158746,18.0323424 155.016638,18.3659261 C156.707178,19.0269416 157.637997,19.8796537 157.809294,20.9244591 C157.898249,21.4969689 157.8123,22.0571751 157.551847,22.6046809 C157.234294,23.2720467 156.710183,23.696716 155.979512,23.8794825 C155.06412,24.099358 154.267134,24.0084708 153.586751,23.6054319 C152.995923,23.2529961 152.602439,22.7463696 152.404895,22.0855525 L151.242274,22.4252879 C151.477282,23.2119183 151.921855,23.8602335 152.576594,24.370035 C153.288232,24.9173424 154.117474,25.1915914 155.06412,25.1915914 C155.451794,25.1915914 155.852291,25.1409883 156.265409,25.0405759 C157.281977,24.7949027 158.041298,24.2253696 158.543371,23.3313813 C159.000366,22.5199455 159.153031,21.6545331 159.000366,20.7355409 C158.759547,19.2374903 157.577291,18.0763969 155.455401,17.2518638" id="Fill-19" fill="#FFFFFE"></path>
                <path d="M185.166873,22.7181907 C185.008397,23.278 184.766977,23.6653619 184.443014,23.8794825 C184.06115,24.1438093 183.448484,24.2755759 182.603214,24.2755759 C181.764155,24.2755759 181.145279,24.1372607 180.744582,23.8602335 C180.407596,23.6272607 180.163171,23.2468444 180.010505,22.7181907 C179.902718,22.3467043 179.851629,21.0848016 179.85804,18.9324825 C179.85804,16.8553735 179.899312,15.6154981 179.982456,15.2126576 C180.090044,14.6337977 180.30622,14.2216304 180.630183,13.9759572 C181.018057,13.6866265 181.652962,13.5417626 182.536498,13.5417626 C183.444878,13.5417626 184.108833,13.6927782 184.528162,13.9950078 C184.87176,14.2466342 185.093946,14.6524514 185.195523,15.2126576 C185.278066,15.6154981 185.319538,16.8553735 185.319538,18.9324825 C185.325949,21.0848016 185.275261,22.3467043 185.166873,22.7181907 Z M186.386995,14.9862335 C186.050409,13.223856 184.766977,12.3427665 182.536498,12.3427665 C180.375941,12.3427665 179.12757,13.223856 178.790784,14.9862335 C178.70804,15.3952257 178.660357,16.6793541 178.647535,18.8378249 C178.635113,21.1538599 178.701629,22.5574514 178.847883,23.0485992 C179.089303,23.8854358 179.511638,24.4990233 180.115488,24.8893619 C180.719338,25.2797004 181.547979,25.474572 182.603214,25.474572 C183.664059,25.474572 184.490697,25.282677 185.081324,24.8986887 C185.66574,24.5147004 186.082265,23.8979377 186.329695,23.0485992 C186.475749,22.5574514 186.542866,21.1538599 186.530044,18.8378249 C186.517021,16.6793541 186.469939,15.3952257 186.386995,14.9862335 L186.386995,14.9862335 Z" id="Fill-20" fill="#FFFFFE"></path>
                <polyline id="Fill-21" fill="#FFFFFE" points="91.701324 41.4288405 91.701324 49.7775603 90.9059408 49.7775603 90.9059408 45.4169611 87.918946 45.4169611 87.918946 49.7775603 87.1237631 49.7775603 87.1237631 41.4288405 87.918946 41.4288405 87.918946 44.6293385 90.9059408 44.6293385 90.9059408 41.4288405 91.701324 41.4288405"></polyline>
                <path d="M97.327108,42.1730039 C97.327108,42.0241712 97.2748171,41.8961751 97.1706359,41.7884202 C97.066054,41.6852296 96.9366289,41.6334358 96.7821603,41.6334358 C96.631899,41.6334358 96.504878,41.6852296 96.4002962,41.7884202 C96.2919077,41.8961751 96.2376132,42.0241712 96.2376132,42.1730039 C96.2376132,42.322035 96.2919077,42.4500311 96.4002962,42.5575875 C96.504878,42.6611751 96.631899,42.712572 96.7821603,42.712572 C96.9366289,42.712572 97.066054,42.6611751 97.1706359,42.5575875 C97.2748171,42.4500311 97.327108,42.322035 97.327108,42.1730039 Z M95.7489634,49.1137665 C96.3377875,49.1137665 96.7719425,48.9401284 97.0516289,48.5928521 L97.0516289,47.1227821 C96.8554878,46.8955642 96.4816376,46.7816576 95.9306794,46.7816576 C95.5381969,46.7816576 95.2272561,46.8830623 94.9974564,47.0856732 C94.7678571,47.2926498 94.6532578,47.571463 94.6532578,47.9229066 C94.6532578,48.3777393 94.7846864,48.7045759 95.0475436,48.9030195 C95.2312631,49.043716 95.46527,49.1137665 95.7489634,49.1137665 Z M95.4672735,42.1730039 C95.4672735,42.0241712 95.4129791,41.8961751 95.3045906,41.7884202 C95.2000087,41.6852296 95.0725871,41.6334358 94.9223258,41.6334358 C94.7720645,41.6334358 94.6426394,41.6852296 94.5342509,41.7884202 C94.429669,41.8961751 94.3777787,42.0241712 94.3777787,42.1730039 C94.3777787,42.322035 94.429669,42.4500311 94.5342509,42.5575875 C94.6426394,42.6611751 94.7720645,42.712572 94.9223258,42.712572 C95.0725871,42.712572 95.2000087,42.6611751 95.3045906,42.5575875 C95.4129791,42.4500311 95.4672735,42.322035 95.4672735,42.1730039 Z M96.588223,44.1084241 C97.1099303,44.2530895 97.4649477,44.5386498 97.6526742,44.9643113 C97.7822997,45.2538405 97.8470122,45.6733502 97.8470122,46.2234358 L97.8470122,49.7837121 L97.0516289,49.7837121 C97.0432143,49.6596848 96.9891202,49.6205914 96.888946,49.666035 C96.4962631,49.8232023 96.1164024,49.9015875 95.7489634,49.9015875 C95.177169,49.9015875 94.71777,49.7217977 94.3713676,49.3620195 C94.0289721,49.0022412 93.8578746,48.5228016 93.8578746,47.9229066 C93.8578746,47.3440467 94.0478049,46.8790934 94.4278659,46.5272529 C94.8075261,46.1718405 95.3083972,45.994035 95.9306794,45.994035 C96.3814634,45.994035 96.7553136,46.0559494 97.0516289,46.1799767 C97.0474216,45.7376459 96.999338,45.4274786 96.9075784,45.2496732 C96.8156185,45.0678988 96.6383101,44.9395058 96.3752526,44.8650895 C95.8409233,44.7160584 95.2627178,44.8049611 94.6406359,45.1317977 L94.2649826,44.4370467 C95.0747909,44.0109883 95.8491376,43.9016459 96.588223,44.1084241 L96.588223,44.1084241 Z" id="Fill-22" fill="#FFFFFE"></path>
                <path d="M101.794477,44.1455331 C102.433188,44.0008677 103.001176,44.2159805 103.49784,44.7904747 L102.890383,45.3054358 C102.602282,44.970463 102.297352,44.8400856 101.975993,44.9147004 C101.641812,44.9891167 101.237108,45.1671206 100.76128,45.4481167 L100.76128,49.7775603 L99.9658972,49.7775603 L99.9658972,44.195144 L100.76128,44.195144 L100.76128,44.3997393 C100.76128,44.4947938 100.813371,44.5176148 100.917753,44.4680039 C101.268362,44.3068677 101.560671,44.1995097 101.794477,44.1455331" id="Fill-23" fill="#FFFFFE"></path>
                <path d="M110.415871,49.9015875 C109.752117,49.8976187 109.21338,49.703144 108.800261,49.3187588 L109.345009,48.7416848 C109.608066,48.9857704 109.96689,49.1097977 110.422282,49.1137665 L110.434704,49.1137665 C110.785314,49.1137665 111.065,49.0046226 111.273963,48.785144 C111.440653,48.607537 111.515784,48.3965914 111.499355,48.1525058 C111.465697,47.6812023 111.096455,47.3049533 110.390828,47.0235603 L110.347152,47.0049066 C109.950261,46.8479377 109.664364,46.6989066 109.488859,46.5582101 C109.188336,46.3182918 109.021246,46.0107043 108.987988,45.6340584 C108.95473,45.299284 109.042483,44.9911012 109.251045,44.7099066 C109.459808,44.4326809 109.733284,44.2530895 110.071472,44.1703385 C110.747848,44.0092023 111.367726,44.1745058 111.931307,44.6664475 L111.411603,45.2558249 C111.052378,44.9456576 110.66831,44.8400856 110.259199,44.9395058 C110.121559,44.9726459 110.00676,45.0428949 109.9148,45.1504514 C109.810418,45.2744786 109.764538,45.4127938 109.77716,45.5657938 C109.79399,45.7273268 109.871124,45.8594903 110.008763,45.9628794 C110.117152,46.0454319 110.330322,46.1490195 110.647674,46.2730467 L110.69135,46.2917004 C111.705915,46.6971206 112.240244,47.2986031 112.294538,48.0965447 C112.32399,48.5724125 112.175732,48.9816031 111.849965,49.3249105 C111.482526,49.7092957 111.010706,49.9015875 110.434704,49.9015875 L110.415871,49.9015875" id="Fill-24" fill="#FFFFFE"></path>
                <path d="M115.65338,44.982965 L115.65338,48.3694047 C115.65338,48.6631012 115.715889,48.8657121 115.841106,48.9774358 C115.974739,49.0972957 116.206542,49.138572 116.536315,49.101463 L116.624068,49.8829339 C116.523894,49.8954358 116.425523,49.9015875 116.329756,49.9015875 C115.903815,49.9015875 115.563824,49.7900623 115.308981,49.5668132 C115.008258,49.2979222 114.857997,48.8986537 114.857997,48.3694047 L114.857997,44.982965 L113.868676,44.982965 L113.868676,44.195144 L114.857997,44.195144 L114.857997,42.1543502 L115.65338,42.1543502 L115.65338,44.195144 L116.724242,44.195144 L116.724242,44.982965 L115.65338,44.982965" id="Fill-25" fill="#FFFFFE"></path>
                <path d="M120.308476,49.1137665 C120.8973,49.1137665 121.331254,48.9401284 121.610941,48.5928521 L121.610941,47.1227821 C121.4148,46.8955642 121.04115,46.7816576 120.490192,46.7816576 C120.097709,46.7816576 119.786568,46.8830623 119.556969,47.0856732 C119.327369,47.2926498 119.21277,47.571463 119.21277,47.9229066 C119.21277,48.3777393 119.344199,48.7045759 119.607056,48.9030195 C119.790775,49.043716 120.024382,49.1137665 120.308476,49.1137665 Z M121.147735,44.1084241 C121.669443,44.2530895 122.02446,44.5386498 122.212186,44.9643113 C122.341611,45.2538405 122.406324,45.6733502 122.406324,46.2234358 L122.406324,49.7837121 L121.610941,49.7837121 C121.602526,49.6596848 121.548432,49.6205914 121.448258,49.666035 C121.055775,49.8232023 120.675714,49.9015875 120.308476,49.9015875 C119.736481,49.9015875 119.277282,49.7217977 118.930679,49.3620195 C118.588284,49.0022412 118.417387,48.5228016 118.417387,47.9229066 C118.417387,47.3440467 118.607117,46.8790934 118.987178,46.5272529 C119.367239,46.1718405 119.86811,45.994035 120.490192,45.994035 C120.940976,45.994035 121.314625,46.0559494 121.610941,46.1799767 C121.606934,45.7376459 121.55885,45.4274786 121.46689,45.2496732 C121.37493,45.0678988 121.197822,44.9395058 120.934765,44.8650895 C120.400035,44.7160584 119.82223,44.8049611 119.200148,45.1317977 L118.824294,44.4370467 C119.634103,44.0109883 120.40865,43.9016459 121.147735,44.1084241 L121.147735,44.1084241 Z" id="Fill-26" fill="#FFFFFE"></path>
                <path d="M126.541916,44.1455331 C127.180427,44.0008677 127.748014,44.2159805 128.245279,44.7904747 L127.637622,45.3054358 C127.349721,44.970463 127.044591,44.8400856 126.723432,44.9147004 C126.389451,44.9891167 125.984347,45.1671206 125.508319,45.4481167 L125.508319,49.7775603 L124.713336,49.7775603 L124.713336,44.195144 L125.508319,44.195144 L125.508319,44.3997393 C125.508319,44.4947938 125.56061,44.5176148 125.665192,44.4680039 C126.015801,44.3068677 126.307909,44.1995097 126.541916,44.1455331" id="Fill-27" fill="#FFFFFE"></path>
                <path d="M131.165557,44.982965 L131.165557,48.3694047 C131.165557,48.6631012 131.228066,48.8657121 131.353484,48.9774358 C131.486916,49.0972957 131.718519,49.138572 132.048493,49.101463 L132.136045,49.8829339 C132.035871,49.8954358 131.937901,49.9015875 131.841934,49.9015875 C131.416193,49.9015875 131.075601,49.7900623 130.821159,49.5668132 C130.520636,49.2979222 130.370375,48.8986537 130.370375,48.3694047 L130.370375,44.982965 L129.380653,44.982965 L129.380653,44.195144 L130.370375,44.195144 L130.370375,42.1543502 L131.165557,42.1543502 L131.165557,44.195144 L132.23642,44.195144 L132.23642,44.982965 L131.165557,44.982965" id="Fill-28" fill="#FFFFFE"></path>
                <path d="M135.820653,49.1137665 C136.409477,49.1137665 136.843632,48.9401284 137.123319,48.5928521 L137.123319,47.1227821 C136.926977,46.8955642 136.553328,46.7816576 136.002169,46.7816576 C135.609686,46.7816576 135.298946,46.8830623 135.069146,47.0856732 C134.839547,47.2926498 134.724747,47.571463 134.724747,47.9229066 C134.724747,48.3777393 134.856376,48.7045759 135.119233,48.9030195 C135.302953,49.043716 135.53696,49.1137665 135.820653,49.1137665 Z M136.659913,44.1084241 C137.18162,44.2530895 137.536437,44.5386498 137.724364,44.9643113 C137.853789,45.2538405 137.918702,45.6733502 137.918702,46.2234358 L137.918702,49.7837121 L137.123319,49.7837121 C137.114904,49.6596848 137.06061,49.6205914 136.960436,49.666035 C136.567953,49.8232023 136.188092,49.9015875 135.820653,49.9015875 C135.248859,49.9015875 134.78946,49.7217977 134.443057,49.3620195 C134.100462,49.0022412 133.929564,48.5228016 133.929564,47.9229066 C133.929564,47.3440467 134.119495,46.8790934 134.499355,46.5272529 C134.879216,46.1718405 135.380087,45.994035 136.002169,45.994035 C136.453153,45.994035 136.826803,46.0559494 137.123319,46.1799767 C137.119111,45.7376459 137.070828,45.4274786 136.979268,45.2496732 C136.887308,45.0678988 136.71,44.9395058 136.446943,44.8650895 C135.912613,44.7160584 135.334207,44.8049611 134.712326,45.1317977 L134.336472,44.4370467 C135.146481,44.0109883 135.920828,43.9016459 136.659913,44.1084241 L136.659913,44.1084241 Z" id="Fill-29" fill="#FFFFFE"></path>
                <path d="M142.053894,44.1455331 C142.692805,44.0008677 143.260592,44.2159805 143.757256,44.7904747 L143.1498,45.3054358 C142.861899,44.970463 142.556969,44.8400856 142.23561,44.9147004 C141.901429,44.9891167 141.496524,45.1671206 141.020697,45.4481167 L141.020697,49.7775603 L140.225314,49.7775603 L140.225314,44.195144 L141.020697,44.195144 L141.020697,44.3997393 C141.020697,44.4947938 141.072787,44.5176148 141.177169,44.4680039 C141.527779,44.3068677 141.820087,44.1995097 142.053894,44.1455331" id="Fill-30" fill="#FFFFFE"></path>
                <path d="M151.364085,49.138572 C151.852735,49.138572 152.311934,48.9897393 152.741882,48.6920739 L152.741882,45.1814086 C152.37885,44.9414903 151.957117,44.8400856 151.477082,44.877393 C150.804913,44.9311712 150.387186,45.2351868 150.224503,45.7892412 C150.036577,46.4341829 150.019747,47.1662412 150.174416,47.9850195 C150.241333,48.336463 150.383179,48.6158716 150.600357,48.8224514 C150.813127,49.0331984 151.06797,49.138572 151.364085,49.138572 Z M153.537265,41.0565603 L153.537265,49.7900623 L152.741882,49.7900623 C152.741882,49.6702023 152.685584,49.6330934 152.572787,49.6783385 C152.163476,49.843642 151.760775,49.926393 151.364085,49.926393 C150.875836,49.926393 150.451899,49.7612879 150.092875,49.430284 C149.729843,49.0994786 149.495836,48.6672685 149.391455,48.1338521 C149.211943,47.1910467 149.234983,46.3373424 149.460375,45.572144 C149.723632,44.6664475 150.374765,44.172323 151.414373,44.0897704 C151.881986,44.0566304 152.324355,44.1248949 152.741882,44.2943658 L152.741882,41.0565603 L153.537265,41.0565603 L153.537265,41.0565603 Z" id="Fill-31" fill="#FFFFFE"></path>
                <path d="M155.8002,49.7775603 L156.595383,49.7775603 L156.595383,44.195144 L155.8002,44.195144 L155.8002,49.7775603 Z M156.551707,43.134463 C156.447125,43.2378521 156.319904,43.2896459 156.169643,43.2896459 C156.019181,43.2896459 155.889756,43.2378521 155.781368,43.134463 C155.676786,43.0269066 155.624895,42.8987121 155.624895,42.7498794 C155.624895,42.6010467 155.676786,42.475035 155.781368,42.3716459 C155.889756,42.2640895 156.019181,42.2101128 156.169643,42.2101128 C156.319904,42.2101128 156.447125,42.2640895 156.551707,42.3716459 C156.660096,42.475035 156.71439,42.6010467 156.71439,42.7498794 C156.71439,42.8987121 156.660096,43.0269066 156.551707,43.134463 L156.551707,43.134463 Z" id="Fill-32" fill="#FFFFFE"></path>
                <path d="M162.59061,44.4680039 C162.933206,44.7823385 163.104303,45.2847977 163.104303,45.9753813 L163.104303,49.7775603 L162.30892,49.7775603 L162.30892,45.9753813 C162.30892,45.512214 162.221167,45.2000623 162.045862,45.0387276 C161.903815,44.9063658 161.670009,44.8486187 161.344443,44.8650895 C160.839364,44.8940623 160.344503,45.0573813 159.860261,45.3550467 L159.860261,49.7775603 L159.065078,49.7775603 L159.065078,44.195144 L159.860261,44.195144 C159.856254,44.3606459 159.933389,44.4146226 160.092265,44.3564786 C160.584721,44.1911751 160.987622,44.0979066 161.300767,44.0772685 C161.851925,44.0482957 162.281873,44.1786732 162.59061,44.4680039" id="Fill-33" fill="#FFFFFE"></path>
                <polygon id="Fill-34" fill="#FFFFFE" points="169.4273 49.7775603 170.222883 49.7775603 170.222883 41.4288405 169.4273 41.4288405"></polygon>
                <polyline id="Fill-35" fill="#FFFFFE" points="176.794312 41.4288405 176.794312 42.216463 175.009408 42.216463 175.009408 49.7775603 174.207814 49.7775603 174.207814 42.216463 172.42311 42.216463 172.42311 41.4288405 176.794312 41.4288405"></polyline>
                <path d="M178.674983,47.2406576 C178.508092,47.2406576 178.424547,47.1829105 178.424547,47.0670195 L178.424547,46.5520584 C178.424547,46.4323969 178.510096,46.3722685 178.681594,46.3722685 L180.911071,46.3722685 C181.081768,46.3722685 181.167517,46.4323969 181.167517,46.5520584 L181.167517,47.0670195 C181.167517,47.1829105 181.083772,47.2406576 180.916882,47.2406576 L178.674983,47.2406576" id="Fill-36" fill="#FFFFFE"></path>
                <path d="M186.192256,46.3970739 C186.183841,46.4093774 186.169416,46.4242607 186.148179,46.4405331 C186.131551,46.4613696 186.119129,46.477642 186.110714,46.490144 C187.10865,47.5903152 187.607517,48.6859222 187.607517,49.7775603 L186.812134,49.7775603 C186.812134,48.913537 186.400618,48.0159767 185.578589,47.0856732 C184.668406,48.1443696 184.213415,49.029428 184.213415,49.7404514 L184.213415,49.7775603 L183.417831,49.7775603 L183.417831,41.0440584 L184.213415,41.0440584 L184.213415,47.7431167 C184.488894,47.2097004 184.949895,46.5853969 185.597021,45.8700078 C186.394808,44.993284 186.793502,44.4350623 186.793502,44.195144 L187.588685,44.195144 C187.588685,44.6335058 187.123075,45.3673502 186.192256,46.3970739" id="Fill-37" fill="#FFFFFE"></path>
                <path d="M191.379878,49.1137665 C191.968902,49.1137665 192.401655,48.9401284 192.682143,48.5928521 L192.682143,47.1227821 C192.485801,46.8955642 192.11115,46.7816576 191.560192,46.7816576 C191.167509,46.7816576 190.856969,46.8830623 190.628571,47.0856732 C190.398171,47.2926498 190.283972,47.571463 190.283972,47.9229066 C190.283972,48.3777393 190.414199,48.7045759 190.678659,48.9030195 C190.860976,49.043716 191.095383,49.1137665 191.379878,49.1137665 Z M192.219338,44.1084241 C192.740244,44.2530895 193.094861,44.5386498 193.283188,44.9643113 C193.413415,45.2538405 193.477526,45.6733502 193.477526,46.2234358 L193.477526,49.7837121 L192.682143,49.7837121 C192.674129,49.6596848 192.620035,49.6205914 192.519861,49.666035 C192.127178,49.8232023 191.746516,49.9015875 191.379878,49.9015875 C190.806882,49.9015875 190.348084,49.7217977 190.001882,49.3620195 C189.659085,49.0022412 189.488188,48.5228016 189.488188,47.9229066 C189.488188,47.3440467 189.678118,46.8790934 190.057979,46.5272529 C190.43824,46.1718405 190.939111,45.994035 191.560192,45.994035 C192.010976,45.994035 192.385627,46.0559494 192.682143,46.1799767 C192.678136,45.7376459 192.630052,45.4274786 192.537892,45.2496732 C192.445732,45.0678988 192.269425,44.9395058 192.004965,44.8650895 C191.472038,44.7160584 190.893031,44.8049611 190.269948,45.1317977 L189.895096,44.4370467 C190.704704,44.0109883 191.480052,43.9016459 192.219338,44.1084241 L192.219338,44.1084241 Z" id="Fill-38" fill="#FFFFFE"></path>
                <path d="M197.612718,44.1455331 C198.251829,44.0008677 198.818815,44.2159805 199.315679,44.7904747 L198.708624,45.3054358 C198.420122,44.970463 198.115592,44.8400856 197.795035,44.9147004 C197.460453,44.9891167 197.055749,45.1671206 196.57892,45.4481167 L196.57892,49.7775603 L195.783537,49.7775603 L195.783537,44.195144 L196.57892,44.195144 L196.57892,44.3997393 C196.57892,44.4947938 196.63101,44.5176148 196.735192,44.4680039 C197.085801,44.3068677 197.37831,44.1995097 197.612718,44.1455331" id="Fill-39" fill="#FFFFFE"></path>
                <path d="M202.575348,44.1455331 C203.212456,44.0008677 203.781446,44.2159805 204.27831,44.7904747 L203.671254,45.3054358 C203.382753,44.970463 203.078223,44.8400856 202.755662,44.9147004 C202.423084,44.9891167 202.01838,45.1671206 201.541551,45.4481167 L201.541551,49.7775603 L200.746167,49.7775603 L200.746167,44.195144 L201.541551,44.195144 L201.541551,44.3997393 C201.541551,44.4947938 201.593641,44.5176148 201.697822,44.4680039 C202.048432,44.3068677 202.340941,44.1995097 202.575348,44.1455331" id="Fill-40" fill="#FFFFFE"></path>
                <path d="M205.776916,49.7775603 L206.5723,49.7775603 L206.5723,44.195144 L205.776916,44.195144 L205.776916,49.7775603 Z M206.528223,43.134463 C206.424042,43.2378521 206.295819,43.2896459 206.145557,43.2896459 C205.995296,43.2896459 205.867073,43.2378521 205.758885,43.134463 C205.654704,43.0269066 205.602613,42.8987121 205.602613,42.7498794 C205.602613,42.6010467 205.654704,42.475035 205.758885,42.3716459 C205.867073,42.2640895 205.995296,42.2101128 206.145557,42.2101128 C206.295819,42.2101128 206.424042,42.2640895 206.528223,42.3716459 C206.636411,42.475035 206.692509,42.6010467 206.692509,42.7498794 C206.692509,42.8987121 206.636411,43.0269066 206.528223,43.134463 L206.528223,43.134463 Z" id="Fill-41" fill="#FFFFFE"></path>
                <path d="M212.466551,42.1730039 C212.466551,42.0241712 212.41446,41.8961751 212.310279,41.7884202 C212.206098,41.6852296 212.075871,41.6334358 211.921603,41.6334358 C211.771341,41.6334358 211.645122,41.6852296 211.540941,41.7884202 C211.432753,41.8961751 211.376655,42.0241712 211.376655,42.1730039 C211.376655,42.322035 211.432753,42.4500311 211.540941,42.5575875 C211.645122,42.6611751 211.771341,42.712572 211.921603,42.712572 C212.075871,42.712572 212.206098,42.6611751 212.310279,42.5575875 C212.41446,42.4500311 212.466551,42.322035 212.466551,42.1730039 Z M210.889808,49.1137665 C211.476829,49.1137665 211.911585,48.9401284 212.192073,48.5928521 L212.192073,47.1227821 C211.995732,46.8955642 211.62108,46.7816576 211.070122,46.7816576 C210.677439,46.7816576 210.366899,46.8830623 210.138502,47.0856732 C209.908101,47.2926498 209.793902,47.571463 209.793902,47.9229066 C209.793902,48.3777393 209.924129,48.7045759 210.188589,48.9030195 C210.370906,49.043716 210.605314,49.1137665 210.889808,49.1137665 Z M210.607317,42.1730039 C210.607317,42.0241712 210.553223,41.8961751 210.445035,41.7884202 C210.340854,41.6852296 210.212631,41.6334358 210.062369,41.6334358 C209.912108,41.6334358 209.781882,41.6852296 209.673693,41.7884202 C209.569512,41.8961751 209.517422,42.0241712 209.517422,42.1730039 C209.517422,42.322035 209.569512,42.4500311 209.673693,42.5575875 C209.781882,42.6611751 209.912108,42.712572 210.062369,42.712572 C210.212631,42.712572 210.340854,42.6611751 210.445035,42.5575875 C210.553223,42.4500311 210.607317,42.322035 210.607317,42.1730039 Z M211.729268,44.1084241 C212.250174,44.2530895 212.604791,44.5386498 212.793118,44.9643113 C212.921341,45.2538405 212.987456,45.6733502 212.987456,46.2234358 L212.987456,49.7837121 L212.192073,49.7837121 C212.184059,49.6596848 212.129965,49.6205914 212.029791,49.666035 C211.637108,49.8232023 211.256446,49.9015875 210.889808,49.9015875 C210.316812,49.9015875 209.858014,49.7217977 209.511411,49.3620195 C209.168815,49.0022412 208.998519,48.5228016 208.998519,47.9229066 C208.998519,47.3440467 209.18885,46.8790934 209.567509,46.5272529 C209.948171,46.1718405 210.449042,45.994035 211.070122,45.994035 C211.520906,45.994035 211.895557,46.0559494 212.192073,46.1799767 C212.188066,45.7376459 212.139983,45.4274786 212.047822,45.2496732 C211.955662,45.0678988 211.779355,44.9395058 211.514895,44.8650895 C210.979965,44.7160584 210.402962,44.8049611 209.779878,45.1317977 L209.405226,44.4370467 C210.214634,44.0109883 210.989983,43.9016459 211.729268,44.1084241 L211.729268,44.1084241 Z" id="Fill-42" fill="#FFFFFE"></path>
                <path d="M216.934321,44.1455331 C217.573432,44.0008677 218.140418,44.2159805 218.637282,44.7904747 L218.030226,45.3054358 C217.743728,44.970463 217.437195,44.8400856 217.116638,44.9147004 C216.782056,44.9891167 216.377352,45.1671206 215.902526,45.4481167 L215.902526,49.7775603 L215.105139,49.7775603 L215.105139,44.195144 L215.902526,44.195144 L215.902526,44.3997393 C215.902526,44.4947938 215.954617,44.5176148 216.058798,44.4680039 C216.409408,44.3068677 216.699913,44.1995097 216.934321,44.1455331" id="Fill-43" fill="#FFFFFE"></path>
                <rect id="Rectangle-3" fill="#FFFFFF" x="74" y="33" width="160" height="1"></rect>
            </g>
        </g>
    </g>
</svg>